<?xml version="1.0" encoding="UTF-8"?>
<svg id="Layer_2" data-name="Layer 2" xmlns="http://www.w3.org/2000/svg" viewBox="0 0 309.84 309.84">
  <defs>
    <style>
      .cls-1 {
        fill: none;
      }

      .cls-1, .cls-2, .cls-3, .cls-4, .cls-5 {
        stroke-width: 0px;
      }

      .cls-2 {
        fill: #41a040;
      }

      .cls-3 {
        fill: #cad7e3;
      }

      .cls-4 {
        fill: #dee7f3;
      }

      .cls-5 {
        fill: #91d62b;
      }
    </style>
  </defs>
  <g id="Icon_Design" data-name="Icon Design">
    <g>
      <rect class="cls-1" width="309.84" height="309.84"/>
      <path class="cls-3" d="M83.91,122.64l10.88,27.2c1.23,3.06,4.19,5.07,7.49,5.07h105.3c3.28,0,6.24-1.99,7.47-5.03l10.86-26.69-51.64-.56-19.39,19.36-21.35-19.36h-49.63Z"/>
      <rect class="cls-2" x="148.44" y="142.01" width="12.91" height="38.73"/>
      <path class="cls-2" d="M241.86,258.2H67.69l-32.57-45.6c-2.36-3.3-2.76-7.63-1.06-11.31l33.21-71.98c3.69-7.97,11.74-13.12,20.52-13.12h45.76c2.98,0,5.9,1.21,8,3.32l13.36,13.37,13.4-13.39c2.14-2.13,4.97-3.3,7.98-3.3h45.46c9.05,0,17.2,5.37,20.76,13.69l33.37,77.87c1.68,3.92,1.03,8.4-1.7,11.68l-32.31,38.77ZM74.33,245.29h161.48l27.81-33.37-32.97-76.95c-1.53-3.56-5.02-5.87-8.9-5.87h-44.78l-14.08,14.06c-4.41,4.4-11.58,4.39-15.97,0l-14.03-14.05h-45.09c-3.76,0-7.22,2.21-8.79,5.63l-32.83,71.13,28.16,39.43Z"/>
      <path class="cls-2" d="M243.8,255.88l-9.92-8.26,29.74-35.69-32.97-76.95c-1.53-3.56-5.02-5.87-8.9-5.87h-44.78l-14.08,14.06c-4.41,4.4-11.58,4.39-15.97,0l-14.03-14.05h-45.09c-3.76,0-7.22,2.21-8.79,5.63l-32.83,71.13,30.09,42.13-10.5,7.5-30.64-42.9c-2.36-3.3-2.76-7.63-1.06-11.31l33.21-71.98c3.69-7.97,11.74-13.12,20.52-13.12h45.76c2.98,0,5.9,1.21,8,3.32l13.36,13.37,13.4-13.39c2.14-2.13,4.97-3.3,7.98-3.3h45.46c9.05,0,17.2,5.37,20.76,13.69l33.37,77.87c1.68,3.92,1.03,8.4-1.7,11.68l-30.37,36.45Z"/>
      <circle class="cls-4" cx="154.92" cy="71" r="32.27" transform="translate(79.1 223.63) rotate(-88.21)"/>
      <path class="cls-2" d="M154.92,109.73c-21.36,0-38.73-17.37-38.73-38.73s17.37-38.73,38.73-38.73,38.73,17.37,38.73,38.73-17.37,38.73-38.73,38.73ZM154.92,45.18c-14.24,0-25.82,11.58-25.82,25.82s11.58,25.82,25.82,25.82,25.82-11.58,25.82-25.82-11.58-25.82-25.82-25.82Z"/>
      <rect class="cls-4" x="71" y="180.74" width="167.83" height="90.37" rx="4.84" ry="4.84"/>
      <path class="cls-5" d="M234,277.56H75.85c-6.23,0-11.3-5.07-11.3-11.3v-80.69c0-6.23,5.07-11.3,11.3-11.3h158.15c6.23,0,11.3,5.07,11.3,11.3v80.69c0,6.23-5.07,11.3-11.3,11.3ZM77.46,264.65h154.92v-77.46H77.46v77.46Z"/>
      <rect class="cls-2" x="32.27" y="264.65" width="245.29" height="12.91"/>
      <circle class="cls-2" cx="155.05" cy="226.05" r="19.36" transform="translate(-74.7 76.54) rotate(-22.5)"/>
    </g>
  </g>
</svg>