<?xml version="1.0" encoding="UTF-8"?>
<svg id="Layer_2" data-name="Layer 2" xmlns="http://www.w3.org/2000/svg" viewBox="0 0 309.84 309.84">
  <defs>
    <style>
      .cls-1 {
        fill: none;
      }

      .cls-1, .cls-2, .cls-3, .cls-4, .cls-5 {
        stroke-width: 0px;
      }

      .cls-2 {
        fill: #41a040;
      }

      .cls-3 {
        fill: #cad7e3;
      }

      .cls-4 {
        fill: #dee7f3;
      }

      .cls-5 {
        fill: #91d62b;
      }
    </style>
  </defs>
  <g id="Icon_Design" data-name="Icon Design">
    <g>
      <rect class="cls-1" width="309.84" height="309.84"/>
      <circle class="cls-4" cx="87.14" cy="64.55" r="25.82" transform="translate(16.68 146.98) rotate(-86)"/>
      <rect class="cls-3" x="96.82" y="238.83" width="19.36" height="32.27"/>
      <rect class="cls-3" x="56.79" y="238.83" width="19.36" height="32.27"/>
      <path class="cls-2" d="M87.14,96.82c-17.8,0-32.27-14.48-32.27-32.27s14.48-32.27,32.27-32.27,32.27,14.48,32.27,32.27-14.48,32.27-32.27,32.27ZM87.14,45.18c-10.68,0-19.36,8.69-19.36,19.36s8.69,19.36,19.36,19.36,19.36-8.69,19.36-19.36-8.69-19.36-19.36-19.36Z"/>
      <path class="cls-2" d="M111.35,277.56h-9.68c-6.23,0-11.3-5.07-11.3-11.3v-59.71h-6.45v59.71c0,6.23-5.07,11.3-11.3,11.3h-9.68c-6.23,0-11.3-5.07-11.3-11.3v-137.17h12.91v135.55h6.45v-59.71c0-6.23,5.07-11.3,11.3-11.3h9.68c6.23,0,11.3,5.07,11.3,11.3v59.71h6.45v-135.55h12.91v137.17c0,6.23-5.07,11.3-11.3,11.3Z"/>
      <path class="cls-3" d="M71.45,110.09h-13.35l11.99,22.87c.84,1.59,2.49,2.59,4.29,2.59h25.91c1.83,0,3.51-1.04,4.33-2.68l11.57-23.14h-12.34s-13.48,12.91-13.48,12.91h-6.46l-12.47-12.56Z"/>
      <path class="cls-2" d="M130.71,200.1h-14.52v-12.91h12.91v-69.39c0-.89-.72-1.61-1.61-1.61h-21.94l-13.36,10.69c-2.94,2.37-7.09,2.39-10.08,0l-13.36-10.69h-21.94c-.89,0-1.61.72-1.61,1.61v69.39h12.91v12.91h-14.52c-6.23,0-11.3-5.07-11.3-11.3v-71c0-8.01,6.52-14.52,14.52-14.52h23.64c1.85,0,3.65.64,5.07,1.79l11.63,9.3,11.66-9.33c1.39-1.13,3.2-1.77,5.04-1.77h23.64c8.01,0,14.52,6.51,14.52,14.52v71c0,6.23-5.07,11.3-11.3,11.3ZM84.13,116.79s-.02.02-.03.03l.03-.03ZM67.41,115.13s.03.03.05.04l-.05-.04ZM106.9,115.1l-.05.04s.03-.03.05-.04Z"/>
      <rect class="cls-3" x="200.1" y="51.64" width="51.64" height="51.64" rx="4.84" ry="4.84"/>
      <path class="cls-2" d="M246.9,109.73h-41.96c-6.23,0-11.3-5.07-11.3-11.3v-41.96c0-6.23,5.07-11.3,11.3-11.3h41.96c6.23,0,11.3,5.07,11.3,11.3v41.96c0,6.23-5.07,11.3-11.3,11.3ZM206.56,96.82h38.73v-38.73h-38.73v38.73Z"/>
      <path class="cls-5" d="M225.92,89.7c-2.07,0-4.14-.79-5.7-2.36l-18.22-18.22,9.13-9.13,14.8,14.8,40.62-40.62,9.13,9.13-44.04,44.04c-1.57,1.57-3.64,2.36-5.7,2.36Z"/>
      <rect class="cls-4" x="200.1" y="135.55" width="51.64" height="51.64" rx="4.84" ry="4.84"/>
      <path class="cls-2" d="M246.9,193.65h-41.96c-6.23,0-11.3-5.07-11.3-11.3v-41.96c0-6.23,5.07-11.3,11.3-11.3h41.96c6.23,0,11.3,5.07,11.3,11.3v41.96c0,6.23-5.07,11.3-11.3,11.3ZM206.56,180.74h38.73v-38.73h-38.73v38.73Z"/>
      <path class="cls-5" d="M225.92,173.61c-2.07,0-4.14-.79-5.7-2.36l-18.22-18.22,9.13-9.13,14.8,14.8,40.62-40.62,9.13,9.13-44.04,44.04c-1.57,1.57-3.64,2.36-5.7,2.36Z"/>
      <rect class="cls-3" x="200.1" y="219.47" width="51.64" height="51.64" rx="4.84" ry="4.84"/>
      <path class="cls-2" d="M246.9,277.56h-41.96c-6.23,0-11.3-5.07-11.3-11.3v-41.96c0-6.23,5.07-11.3,11.3-11.3h41.96c6.23,0,11.3,5.07,11.3,11.3v41.96c0,6.23-5.07,11.3-11.3,11.3ZM206.56,264.65h38.73v-38.73h-38.73v38.73Z"/>
      <path class="cls-5" d="M225.92,257.53c-2.07,0-4.14-.79-5.7-2.36l-18.22-18.22,9.13-9.13,14.8,14.8,40.62-40.62,9.13,9.13-44.04,44.04c-1.57,1.57-3.64,2.36-5.7,2.36Z"/>
    </g>
  </g>
</svg>