<?xml version="1.0" encoding="UTF-8"?>
<svg id="Layer_2" data-name="Layer 2" xmlns="http://www.w3.org/2000/svg" viewBox="0 0 309.84 309.84">
  <defs>
    <style>
      .cls-1 {
        fill: none;
      }

      .cls-1, .cls-2, .cls-3, .cls-4, .cls-5 {
        stroke-width: 0px;
      }

      .cls-2 {
        fill: #41a040;
      }

      .cls-3 {
        fill: #cad7e3;
      }

      .cls-4 {
        fill: #dee7f3;
      }

      .cls-5 {
        fill: #91d62b;
      }
    </style>
  </defs>
  <g id="Icon_Design" data-name="Icon Design">
    <g>
      <rect class="cls-1" width="309.84" height="309.84"/>
      <path class="cls-3" d="M83.91,122.64l10.88,27.2c1.23,3.06,4.19,5.07,7.49,5.07h105.3c3.28,0,6.24-1.99,7.47-5.03l10.86-26.69-51.64-.56-19.39,19.36-21.35-19.36h-49.63Z"/>
      <rect class="cls-2" x="148.44" y="142.01" width="12.91" height="38.73"/>
      <path class="cls-5" d="M219.47,123.07h-12.91v-60.13c0-9.79-7.96-17.75-17.75-17.75h-67.78c-9.79,0-17.75,7.96-17.75,17.75v59.71h-12.91v-59.71c0-16.91,13.75-30.66,30.66-30.66h67.78c16.91,0,30.66,13.75,30.66,30.66v60.13Z"/>
      <path class="cls-2" d="M241.86,258.2H67.68l-32.57-45.6c-2.36-3.3-2.76-7.63-1.06-11.31l33.22-71.98c3.67-7.97,11.73-13.12,20.51-13.12h45.76c3.02,0,5.86,1.18,7.99,3.32l13.36,13.37,13.4-13.39c2.14-2.13,4.97-3.3,7.99-3.3h45.45c9.05,0,17.2,5.37,20.76,13.69l33.37,77.86c1.68,3.94,1.02,8.41-1.7,11.68l-32.31,38.77ZM74.33,245.29h161.48l27.81-33.37-32.98-76.95c-1.53-3.56-5.02-5.87-8.9-5.87h-44.78l-14.07,14.06c-4.41,4.4-11.58,4.39-15.97,0l-14.04-14.05h-45.09c-3.76,0-7.21,2.21-8.79,5.62l-32.84,71.14,28.16,39.43Z"/>
      <path class="cls-2" d="M243.79,255.88l-9.92-8.26,29.75-35.69-32.98-76.95c-1.53-3.56-5.02-5.87-8.9-5.87h-44.78l-14.07,14.06c-4.41,4.4-11.58,4.39-15.97,0l-14.04-14.05h-45.09c-3.76,0-7.21,2.21-8.79,5.62l-32.84,71.14,30.09,42.13-10.5,7.5-30.64-42.9c-2.36-3.3-2.76-7.63-1.06-11.31l33.22-71.98c3.67-7.97,11.73-13.12,20.51-13.12h45.76c3.02,0,5.86,1.18,7.99,3.32l13.36,13.37,13.4-13.39c2.14-2.13,4.97-3.3,7.99-3.3h45.45c9.05,0,17.2,5.37,20.76,13.69l33.37,77.86c1.68,3.94,1.02,8.41-1.7,11.68l-30.38,36.45Z"/>
      <rect class="cls-4" x="71" y="180.74" width="167.83" height="90.37" rx="4.84" ry="4.84"/>
      <path class="cls-5" d="M233.99,277.56H75.85c-6.23,0-11.3-5.07-11.3-11.3v-80.69c0-6.23,5.07-11.3,11.3-11.3h158.15c6.23,0,11.3,5.07,11.3,11.3v80.69c0,6.23-5.07,11.3-11.3,11.3ZM77.46,264.65h154.92v-77.46H77.46v77.46Z"/>
      <rect class="cls-2" x="32.27" y="264.65" width="245.29" height="12.91"/>
      <circle class="cls-2" cx="155.05" cy="226.05" r="19.36" transform="translate(-114.43 175.85) rotate(-45)"/>
      <path class="cls-4" d="M186.76,65.69c.29,1.73.44,3.5.44,5.32,0,17.82-14.45,32.27-32.27,32.27s-32.27-14.45-32.27-32.27c0-2.02.19-4,.54-5.92l25.28-11.83,38.29,12.44Z"/>
      <path class="cls-2" d="M154.92,109.73c-21.36,0-38.73-17.37-38.73-38.73,0-2.36.22-4.75.65-7.09l12.7,2.34c-.29,1.57-.43,3.16-.43,4.75,0,14.24,11.58,25.82,25.82,25.82s25.82-11.58,25.82-25.82c0-1.42-.12-2.86-.35-4.27l12.73-2.09c.35,2.1.52,4.24.52,6.36,0,21.36-17.37,38.73-38.73,38.73Z"/>
      <path class="cls-5" d="M200.1,72.07h-25.82c-9.97,0-19.46-5.68-25.16-9.91-10.76,8.73-30.24,9.81-32.67,9.91h-6.72s0-12.9,0-12.9h6.45c6.46-.29,21.8-2.73,26.22-8.43,1.36-1.74,3.38-2.87,5.56-3.09,2.19-.2,4.38.48,6.04,1.9,2.63,2.25,11.88,9.61,20.28,9.61h25.82v12.91ZM145.6,59.35s0,0,.01,0c0,0,0,0-.01,0Z"/>
    </g>
  </g>
</svg>